<?xml version="1.0" standalone="no"?>
<!DOCTYPE svg PUBLIC "-//W3C//DTD SVG 20010904//EN"
 "http://www.w3.org/TR/2001/REC-SVG-20010904/DTD/svg10.dtd">
<svg version="1.0" xmlns="http://www.w3.org/2000/svg"
 width="960.000000pt" height="960.000000pt" viewBox="0 0 960.000000 960.000000"
 preserveAspectRatio="xMidYMid meet">

<g transform="translate(0.000000,960.000000) scale(0.100000,-0.100000)"
fill="#000000" stroke="none">
<path d="M0 4800 l0 -4800 4800 0 4800 0 0 4800 0 4800 -4800 0 -4800 0 0
-4800z m7994 2727 c22 -12 51 -37 63 -56 l23 -34 0 -708 0 -709 -775 0 c-426
0 -775 3 -775 7 0 3 29 35 65 71 70 69 79 94 45 130 -41 44 -65 32 -202 -105
-170 -170 -170 -155 -1 -325 138 -138 161 -150 203 -106 33 36 25 59 -45 128
-36 35 -65 68 -65 72 0 4 349 8 775 8 l775 0 0 -1873 0 -1872 -24 -36 c-14
-20 -42 -45 -63 -55 -37 -19 -120 -19 -3183 -22 -1730 -1 -3159 0 -3177 3 -45
8 -92 50 -114 103 -18 42 -19 91 -19 1310 0 1210 1 1269 19 1307 21 46 54 79
94 94 20 8 580 11 1838 11 l1809 0 2 1288 3 1287 23 33 c27 37 71 63 121 71
19 3 599 5 1289 3 l1255 -2 41 -23z"/>
<path d="M3137 3843 c-4 -3 -7 -175 -7 -380 l0 -374 73 3 72 3 1 188 c1 104 4
190 6 193 3 2 35 -31 73 -74 87 -99 231 -257 272 -299 20 -22 37 -31 47 -27
15 6 16 44 14 378 l-3 371 -72 3 -73 3 0 -201 c0 -121 -4 -200 -9 -198 -5 2
-74 77 -152 168 -216 252 -225 261 -242 243z"/>
<path d="M3992 3828 c-57 -13 -136 -87 -151 -143 -35 -127 12 -208 159 -278
47 -22 93 -46 103 -55 23 -20 22 -67 -3 -92 -29 -29 -126 -27 -202 4 -66 27
-62 30 -73 -67 l-6 -57 48 -22 c34 -15 74 -23 139 -26 77 -4 98 -1 142 18 65
28 97 65 118 136 37 129 -26 220 -200 290 -68 27 -95 61 -81 103 16 51 73 64
171 40 25 -6 46 -10 48 -8 2 2 7 34 11 70 l7 66 -44 11 c-67 17 -139 21 -186
10z"/>
<path d="M4655 3830 c-114 -24 -206 -96 -253 -199 -21 -43 -27 -75 -30 -143
-8 -177 61 -299 206 -366 67 -31 193 -40 267 -19 l50 14 -3 69 c-2 38 -7 72
-10 76 -4 4 -27 0 -52 -8 -95 -34 -223 5 -270 80 -58 95 -45 222 30 295 61 59
150 76 235 46 21 -8 41 -12 43 -10 3 2 7 36 10 74 5 70 5 71 -24 81 -39 15
-150 21 -199 10z"/>
<path d="M5743 3821 c-215 -80 -305 -339 -191 -553 37 -70 92 -121 168 -156
47 -22 70 -25 155 -26 151 -1 248 43 318 146 54 80 70 141 65 251 -7 154 -70
257 -196 319 -59 29 -76 33 -166 36 -80 2 -112 -2 -153 -17z m212 -142 c55
-15 120 -82 135 -139 19 -72 8 -164 -27 -214 -110 -157 -355 -106 -394 82 -37
182 109 320 286 271z"/>
<path d="M2100 3460 l0 -370 190 0 190 0 0 75 0 75 -115 0 -115 0 0 295 0 295
-75 0 -75 0 0 -370z"/>
<path d="M2610 3460 l0 -370 190 0 190 0 0 75 0 75 -115 0 -115 0 0 75 0 75
95 0 96 0 -3 73 -3 72 -93 0 -92 0 0 73 0 72 110 0 110 0 0 75 0 75 -185 0
-185 0 0 -370z"/>
<path d="M5020 3460 l0 -370 190 0 190 0 0 75 0 75 -115 0 -115 0 0 295 0 295
-75 0 -75 0 0 -370z"/>
<path d="M6342 3758 l3 -73 85 -1 85 -1 5 -294 5 -294 73 -3 72 -3 0 296 0
295 78 1 c42 1 83 2 91 3 13 1 15 16 12 121 l-1 25 -255 0 -256 0 3 -72z"/>
<path d="M6970 3460 l0 -371 73 3 72 3 2 140 c1 77 3 143 3 148 0 4 47 7 105
7 l104 0 3 -147 3 -148 73 -3 72 -3 0 371 0 370 -75 0 -75 0 0 -148 0 -148
-97 4 c-54 2 -102 4 -107 5 -4 2 -8 67 -8 145 l0 142 -74 0 -74 0 0 -370z"/>
</g>
</svg>
